<?xml version="1.0" encoding="utf-8"?>
<!-- Generator: Adobe Illustrator 23.0.0, SVG Export Plug-In . SVG Version: 6.00 Build 0)  -->
<svg version="1.1" id="Layer_1" xmlns="http://www.w3.org/2000/svg" xmlns:xlink="http://www.w3.org/1999/xlink" x="0px" y="0px"
	 viewBox="0 0 300 413.3" enable-background="new 0 0 300 413.3" xml:space="preserve">
<g>
	<ellipse opacity="0.24" cx="149.2" cy="378" rx="65.1" ry="12.6"/>
	<g>
		<g>
			<path fill="#FF8400" d="M148.8,23.2c-75.1,0-136.2,61.1-136.2,136.2c0,31.8,11,61.1,29.3,84.3L148.8,378l106.8-134.3
				c18.4-23.2,29.3-52.5,29.3-84.3C285,84.3,223.9,23.2,148.8,23.2z M148.8,268.6c-61.2,0-111-49.8-111-111s49.8-111,111-111
				s111,49.8,111,111S210.1,268.6,148.8,268.6z"/>
		</g>
	</g>
	<path d="M237.5,118.8c-0.3-0.9-1-1.6-1.9-2l-15-6c-0.9-4.8-4.6-8.7-9.3-9.9l-0.8-9.3c-0.1-1.4-1-2.5-2.3-3
		c-1.3-0.4-2.7-0.1-3.6,0.9l-3.8,4.2l-2.4-8.3c-0.4-1.4-1.7-2.4-3.2-2.5c-1.5-0.1-2.8,0.9-3.4,2.3l-17.8,49l-65.7,3.1
		c0,0-0.1,0-0.1,0c-13.5,0.8-26.3-6.4-32.6-18.4c-0.9-1.7-3-2.3-4.6-1.5c-1.7,0.9-2.3,3-1.5,4.6c5.6,10.6,15.4,18.2,26.8,20.9
		c-0.4,0.4-0.8,0.7-1.2,1.1c-4.3,4.3-9.5,12-10.2,25.3L69.9,176c-0.9,0.4-1.5,1.1-1.9,2l-7.8,22.1c-0.6,1.6,0.1,3.3,1.5,4.1l3.7,2.2
		c0.5,0.3,1.1,0.5,1.7,0.5c0.4,0,0.8-0.1,1.2-0.2c1-0.4,1.7-1.1,2.1-2.1L76,189l13.4-1.1l-4.1,5.5c-0.6,0.8-0.8,1.7-0.6,2.7l4.2,23
		c0.3,1.6,1.7,2.8,3.4,2.8h4.3c1,0,2-0.5,2.6-1.2c0.7-0.8,0.9-1.8,0.7-2.8l-3-16.2l28.7-19.9c0.1-0.1-0.1,0.1,0,0
		c2.7-2.3,4.7-4.8,6.1-7.4c14.5,2.5,34.6,6.1,47.7,8.3c0.2,0.1-0.2-0.1,0,0l27,36.9c0.7,0.9,1.7,1.4,2.8,1.4c0.5,0,1.1-0.1,1.6-0.4
		l3.2-1.6c0.8-0.4,1.4-1.1,1.7-2c0.3-0.9,0.2-1.8-0.2-2.6l-14-27.2l14.3,2.9l-0.3,5c-0.1,1.3,0.5,2.5,1.6,3.1l2.1,1.3
		c0.6,0.4,1.2,0.5,1.8,0.5c0.4,0,0.7-0.1,1-0.2c1-0.3,1.8-1,2.1-2l4.9-12.1c0.4-0.9,0.3-1.9-0.1-2.7c-0.4-0.9-1.1-1.5-2-1.8
		l-25.9-8.9c0-0.1,7.7-35.7,7.7-35.7c1.4,0.2,2.9,0.4,4.4,0.4c10.1,0,19.3-5.9,24.1-15.4C237.7,120.7,237.8,119.7,237.5,118.8z"/>
</g>
</svg>
