<?xml version="1.0" encoding="utf-8"?>
<!-- Generator: Adobe Illustrator 23.0.0, SVG Export Plug-In . SVG Version: 6.00 Build 0)  -->
<svg version="1.1" id="Layer_1" xmlns="http://www.w3.org/2000/svg" xmlns:xlink="http://www.w3.org/1999/xlink" x="0px" y="0px"
	 viewBox="0 0 300 413.3" enable-background="new 0 0 300 413.3" xml:space="preserve">
<g>
	<ellipse opacity="0.24" cx="149.2" cy="381.3" rx="66.4" ry="12.9"/>
	<g>
		<g>
			<path fill="#FF8400" d="M148.8,19.6C72.3,19.6,10,81.9,10,158.4c0,32.4,11.2,62.3,29.9,85.9l108.9,136.9l108.9-136.9
				c18.7-23.7,29.9-53.5,29.9-85.9C287.6,81.9,225.4,19.6,148.8,19.6z M148.8,269.8c-62.4,0-113.2-50.8-113.2-113.2
				S86.4,43.4,148.8,43.4S262,94.2,262,156.6S211.3,269.8,148.8,269.8z"/>
		</g>
	</g>
</g>
<g>
	<g id="Layer_2_40_">
		<g>
			<path d="M93,152c5.2,9.2,12.9,17.6,21.8,23.8c10.7,7.4,22.5,11.3,34.1,11.4v0c0,0,0,0,0,0s0,0,0,0v0c11.7,0,23.5-3.9,34.1-11.4
				c8.9-6.2,16.6-14.6,21.8-23.8c5.1-0.3,9.4-2.4,12.3-6.1c2.9-3.7,4.4-8.7,4.4-14.9c0-7.5-2.3-13.7-6.3-17.8c0,0-3.2-2.9-5.2-3.7
				c-3.3-12.8-10.9-24.7-21.5-33.9c-11.7-10.1-26.1-15.7-40.4-15.7c-14.3,0-28.3,5.6-39.6,15.8c-10,9-17.2,21-20.5,33.9
				c-2,0.9-3.8,2.1-5.3,3.7c-4,4.1-6.3,10.3-6.3,17.8c0,6.2,1.5,11.2,4.4,14.9C83.6,149.6,87.8,151.6,93,152z M92.6,116.7l2.1-0.5
				c5.8-0.6,11.2-1.7,16.2-3.1c15-4,25.9-10.3,29.8-12.7c1.1-0.7,2.2-0.7,3,0c1.6,1.7,3.8,5.3-0.1,11.1c-0.1,0.2-0.3,0.3-0.4,0.5
				c0,0,0,0,0,0c0,0,0,0,0,0.1c-0.1,0.3-0.2,0.6-0.3,0.9c0,0.1,0,0.1,0,0.1c0,0,0,0,0,0c0,0.2,0,0.3,0,0.5c0,1.8,1.5,3.3,3.3,3.3
				c0.2,0,0.3,0,0.5,0c0,0,0,0,0,0c12.5-1.9,19.3-11.6,22.8-19.4c0.7-1.7,2.2-1.5,3.1-0.3c6.7,8.5,12.5,13,17.2,15.3
				c5.1,2.5,8.1,3.1,13.5,3.7l2.1,0.5c7.3,1.9,7.9,11.3,7.9,14.2c0,8.4-3.3,12.7-9.7,12.7c-0.1,0-0.4,0-0.6,0l-3-0.2l-1.3,2.5
				c-8.2,15.9-27.2,32.9-49.8,32.9c-22.6,0-41.6-17.1-49.8-32.9l-1.3-2.5l-3,0.2c-0.2,0-0.4,0-0.6,0c-6.4,0-9.7-4.3-9.7-12.7
				C84.7,128.1,85.3,118.6,92.6,116.7z"/>
			<path d="M128.7,143.6c5.2,0,9.4-4.2,9.4-9.4c0-5.2-4.2-9.4-9.4-9.4c-5.2,0-9.4,4.2-9.4,9.4C119.4,139.4,123.5,143.6,128.7,143.6z
				 M130.6,130.6c2.7,0,4.8,2.2,4.8,4.8c0,2.7-2.1,4.8-4.8,4.8s-4.8-2.2-4.8-4.8C125.8,132.8,128,130.6,130.6,130.6z"/>
			<path d="M169.3,143.6c5.2,0,9.4-4.2,9.4-9.4c0-5.2-4.2-9.4-9.4-9.4c-5.2,0-9.4,4.2-9.4,9.4C159.9,139.5,164.1,143.6,169.3,143.6z
				 M167.3,130.6c2.7,0,4.8,2.2,4.8,4.8c0,2.7-2.1,4.8-4.8,4.8c-2.7,0-4.8-2.2-4.8-4.8C162.5,132.8,164.7,130.6,167.3,130.6z"/>
			<path d="M186.6,189.7c-2.9,0-11.7,0-13.6,0c0,0-0.1,0-0.1,0c0,0-0.1,0-0.1,0c-0.1,0-0.2,0-0.2,0l0,0c-1.4,0.1-2.7,0.9-3.4,2l0,0
				c0,0,0,0.1-0.1,0.2c0,0,0,0,0,0c-1.6,2.7-14.9,25.2-20.1,25.3c-5.1-0.1-18.5-22.6-20.1-25.3c0,0,0,0,0,0
				c-0.1-0.1-0.1-0.2-0.1-0.2l0,0c-0.7-1.1-2-1.9-3.4-2l0,0c0,0-0.1,0-0.2,0c0,0-0.1,0-0.1,0c0,0-0.1,0-0.1,0c-1.9,0-10.7,0-13.6,0
				c-13.2,0-30.9,12-30.9,27.4s0,24.5,0,24.5h68.5h0.1h0.1h68.5c0,0,0-9.2,0-24.5C217.5,201.7,199.8,189.7,186.6,189.7z"/>
		</g>
	</g>
</g>
</svg>
