<?xml version="1.0" encoding="utf-8"?>
<!-- Generator: Adobe Illustrator 23.0.0, SVG Export Plug-In . SVG Version: 6.00 Build 0)  -->
<svg version="1.1" id="Layer_1" xmlns="http://www.w3.org/2000/svg" xmlns:xlink="http://www.w3.org/1999/xlink" x="0px" y="0px"
	 viewBox="0 0 300 413.3" enable-background="new 0 0 300 413.3" xml:space="preserve">
<g>
	<ellipse opacity="0.24" cx="149.2" cy="380.4" rx="66.1" ry="12.8"/>
	<g>
		<g>
			<path fill="#FF8400" d="M148.8,20.6c-76.1,0-138.1,61.9-138.1,138.1c0,32.3,11.1,62,29.7,85.5l108.3,136.2l108.3-136.2
				c18.6-23.5,29.7-53.2,29.7-85.5C286.9,82.6,225,20.6,148.8,20.6z M148.8,269.4c-62.1,0-112.6-50.5-112.6-112.6
				S86.8,44.3,148.8,44.3s112.6,50.5,112.6,112.6S210.9,269.4,148.8,269.4z"/>
		</g>
	</g>
</g>
<g>
	<g id="Layer_2_40_">
		<g>
			<path d="M93.3,152.3c5.2,9.2,12.8,17.5,21.7,23.7c10.6,7.4,22.3,11.3,33.9,11.3v0c0,0,0,0,0,0s0,0,0,0v0
				c11.6,0,23.3-3.9,33.9-11.3c8.9-6.2,16.5-14.5,21.7-23.7c5.1-0.3,9.3-2.4,12.2-6.1c2.9-3.7,4.4-8.6,4.4-14.8
				c0-7.5-2.3-13.7-6.3-17.7c0,0-3.2-2.9-5.2-3.7c-3.3-12.7-10.9-24.6-21.4-33.7c-11.7-10.1-26-15.6-40.2-15.6
				c-14.2,0-28.2,5.6-39.4,15.7c-9.9,9-17.1,20.9-20.4,33.7c-2,0.9-3.8,2.1-5.3,3.6c-4,4-6.3,10.2-6.3,17.7c0,6.2,1.5,11.2,4.4,14.8
				C84,149.9,88.2,151.9,93.3,152.3z M92.9,117.2l2.1-0.5c5.8-0.6,11.2-1.7,16.1-3c14.9-4,25.8-10.2,29.7-12.7
				c1.1-0.7,2.2-0.7,2.9,0c1.6,1.7,3.7,5.3-0.1,11c-0.1,0.2-0.3,0.3-0.4,0.5c0,0,0,0,0,0c0,0,0,0,0,0.1c-0.1,0.3-0.2,0.6-0.3,0.9
				c0,0.1,0,0.1,0,0.1c0,0,0,0,0,0c0,0.2,0,0.3,0,0.5c0,1.8,1.5,3.3,3.3,3.3c0.2,0,0.3,0,0.5,0c0,0,0,0,0,0
				c12.5-1.9,19.2-11.5,22.7-19.3c0.7-1.7,2.2-1.5,3.1-0.3c6.6,8.5,12.4,13,17.1,15.3c5.1,2.5,8,3.1,13.5,3.6l2.1,0.5
				c7.3,1.9,7.9,11.3,7.9,14.1c0,8.4-3.2,12.6-9.6,12.6c-0.1,0-0.4,0-0.6,0l-3-0.2l-1.3,2.5c-8.1,15.8-27.1,32.7-49.5,32.8
				c-22.4,0-41.4-17-49.5-32.8l-1.3-2.5l-3,0.2c-0.2,0-0.4,0-0.6,0c-6.4,0-9.6-4.2-9.6-12.6C85,128.5,85.6,119.1,92.9,117.2z"/>
			<path d="M128.8,144c5.1,0,9.3-4.2,9.3-9.3c0-5.1-4.2-9.3-9.3-9.3c-5.2,0-9.3,4.2-9.3,9.3C119.5,139.8,123.7,144,128.8,144z
				 M130.7,131c2.6,0,4.8,2.1,4.8,4.8c0,2.6-2.1,4.8-4.8,4.8c-2.6,0-4.8-2.1-4.8-4.8C126,133.2,128.1,131,130.7,131z"/>
			<path d="M169.1,144c5.2,0,9.3-4.2,9.3-9.3c0-5.1-4.2-9.3-9.3-9.3c-5.1,0-9.3,4.2-9.3,9.3C159.8,139.8,164,144,169.1,144z
				 M167.2,131c2.6,0,4.8,2.1,4.8,4.8c0,2.6-2.1,4.8-4.8,4.8c-2.6,0-4.8-2.1-4.8-4.8C162.5,133.2,164.6,131,167.2,131z"/>
			<path d="M186.4,189.8c-2.9,0-11.6,0-13.6,0c0,0-0.1,0-0.1,0c0,0-0.1,0-0.1,0c-0.1,0-0.2,0-0.2,0l0,0c-1.4,0.1-2.6,0.9-3.4,2l0,0
				c0,0,0,0.1-0.1,0.2c0,0,0,0,0,0c-1.6,2.7-14.8,25-20,25.2c-5.1-0.1-18.4-22.5-20-25.2c0,0,0,0,0,0c-0.1-0.1-0.1-0.2-0.1-0.2l0,0
				c-0.7-1.1-1.9-1.9-3.4-2l0,0c0,0-0.1,0-0.2,0c0,0-0.1,0-0.1,0c0,0-0.1,0-0.1,0c-1.9,0-10.7,0-13.6,0c-13.1,0-30.7,12-30.7,27.2
				s0,24.4,0,24.4h68.1h0.1h0.1h68.1c0,0,0-9.1,0-24.4C217.1,201.8,199.5,189.8,186.4,189.8z"/>
		</g>
	</g>
</g>
</svg>
