<?xml version="1.0" encoding="utf-8"?>
<!-- Generator: Adobe Illustrator 23.0.0, SVG Export Plug-In . SVG Version: 6.00 Build 0)  -->
<svg version="1.1" id="Layer_1" xmlns="http://www.w3.org/2000/svg" xmlns:xlink="http://www.w3.org/1999/xlink" x="0px" y="0px"
	 viewBox="0 0 300 413.3" enable-background="new 0 0 300 413.3" xml:space="preserve">
<g>
	<ellipse opacity="0.24" cx="149.2" cy="382.2" rx="66.8" ry="13"/>
	<g>
		<g>
			<path fill="#FF8400" d="M148.8,18.6C71.9,18.6,9.3,81.2,9.3,158.2c0,32.6,11.2,62.6,30,86.4l109.5,137.7l109.5-137.7
				c18.8-23.8,30-53.8,30-86.4C288.4,81.2,225.8,18.6,148.8,18.6z M148.8,270.1c-62.7,0-113.8-51-113.8-113.8s51-113.8,113.8-113.8
				s113.8,51,113.8,113.8S211.6,270.1,148.8,270.1z"/>
		</g>
	</g>
</g>
<path d="M236.2,119.8c-0.3-0.9-1-1.6-1.9-1.9l-14.7-5.9c-0.9-4.7-4.5-8.5-9.1-9.7l-0.8-9.1c-0.1-1.3-1-2.5-2.3-2.9
	c-1.3-0.4-2.7-0.1-3.6,0.9l-3.8,4.2l-2.3-8.1c-0.4-1.4-1.7-2.4-3.1-2.4c-1.5,0-2.8,0.8-3.3,2.2l-17.4,48l-64.3,3c0,0-0.1,0-0.1,0
	c-13.2,0.8-25.7-6.3-31.9-18c-0.9-1.6-2.9-2.3-4.5-1.4c-1.6,0.9-2.3,2.9-1.4,4.5c5.5,10.4,15.1,17.8,26.2,20.5
	c-0.4,0.3-0.8,0.7-1.2,1.1c-4.2,4.2-9.3,11.8-10,24.7l-14.6,6.4c-0.9,0.4-1.5,1.1-1.8,2l-7.6,21.6c-0.5,1.5,0.1,3.2,1.5,4l3.7,2.1
	c0.5,0.3,1.1,0.4,1.7,0.4c0.4,0,0.8-0.1,1.2-0.2c0.9-0.3,1.7-1.1,2-2l5.4-15.2l13.1-1.1l-4,5.4c-0.6,0.7-0.8,1.7-0.6,2.6l4.2,22.5
	c0.3,1.6,1.7,2.8,3.3,2.8h4.2c1,0,1.9-0.4,2.6-1.2c0.6-0.8,0.9-1.8,0.7-2.8l-2.9-15.9l28.1-19.4c0.1-0.1-0.1,0.1,0,0
	c2.7-2.2,4.6-4.7,6-7.2c14.1,2.5,33.9,6,46.7,8.1c0.2,0.1-0.2,0,0,0l26.4,36.1c0.7,0.9,1.7,1.4,2.7,1.4c0.5,0,1-0.1,1.5-0.4l3.1-1.6
	c0.8-0.4,1.4-1.1,1.7-2c0.3-0.9,0.2-1.8-0.2-2.6L201,186.6l14,2.9l-0.3,4.9c-0.1,1.2,0.5,2.4,1.6,3.1l2.1,1.3
	c0.5,0.3,1.2,0.5,1.8,0.5c0.3,0,0.7-0.1,1-0.2c0.9-0.3,1.7-1,2.1-1.9l4.8-11.8c0.4-0.9,0.3-1.8-0.1-2.7c-0.4-0.8-1.1-1.5-2-1.8
	l-25.4-8.7c0-0.1,7.6-34.9,7.6-34.9c1.4,0.2,2.8,0.4,4.3,0.4c9.9,0,18.9-5.8,23.6-15.1C236.5,121.7,236.5,120.7,236.2,119.8z"/>
</svg>
