<?xml version="1.0" encoding="utf-8"?>
<!-- Generator: Adobe Illustrator 23.0.0, SVG Export Plug-In . SVG Version: 6.00 Build 0)  -->
<svg version="1.1" id="Layer_1" xmlns="http://www.w3.org/2000/svg" xmlns:xlink="http://www.w3.org/1999/xlink" x="0px" y="0px"
	 viewBox="0 0 300 413.3" enable-background="new 0 0 300 413.3" xml:space="preserve">
<g>
	<ellipse opacity="0.24" cx="149.2" cy="385" rx="67.8" ry="13.2"/>
	<g>
		<g>
			<path fill="#FF8400" d="M148.8,15.6C70.7,15.6,7.1,79.2,7.1,157.4c0,33.1,11.4,63.6,30.5,87.8L148.8,385l111.2-139.9
				c19.1-24.2,30.5-54.7,30.5-87.8C290.6,79.2,227,15.6,148.8,15.6z M148.8,271.1c-63.7,0-115.6-51.9-115.6-115.6
				S85.1,39.9,148.8,39.9s115.6,51.9,115.6,115.6S212.6,271.1,148.8,271.1z"/>
		</g>
	</g>
</g>
<path d="M206.6,102.5c-0.4-1.2-1.2-2.1-2.4-2.4c-3.8-1.1-7.1-3.9-8.8-7.6c-0.3-0.6-0.6-1.3-1-1.8c-1.5-2.5-3.8-4.5-6.5-5.5
	c-2.5-0.9-4.2-2.4-5.8-3.8c-0.2-3.4-0.9-12.7-3.5-19.1c-0.2-0.5-0.7-0.9-1.2-1c-0.5-0.1-1.1,0.1-1.5,0.4c-2.6,2.5-7.5,8.4-9.8,17.7
	c-10.1,4.6-13.2,14.5-13.2,21.4c0,2.1,0.4,4.1,1.1,6.1c-5.1,2.4-9.9,7.4-14.5,15.5L116,150.5l0,0c-8.9,8.1-14.8,22.7-14.8,39.3
	c0,3.5,0.3,6.6,0.8,9.6c-0.1,0.1-0.3,0.2-0.4,0.4c-7.7,12.7-6.8,11.3-8.6,15.1c-3.6,9.6-1.6,19.8,4,25.6c7.7,8,15.9,9.5,18.9,9.3
	c6.1,0.1,4.9,0.1,37.3-10.8c2.1-0.7,3.4-3,2.8-5.2c-0.6-2.3-3-3.6-5.3-3c-32.6,9.1-31.7,9.4-37,8c-0.5-0.2-17.3-7.8-6-24.4
	c5.4,8.1,13.8,12.1,23.2,12.5v0.1h34.3c2.7,0,4.9-1.8,4.9-4c0-3.5-1.9-6.9-5.3-9.1c-1.5-1.1-3.3-1.8-5.2-2.2
	c2.4-4.2,4.1-9.3,4.8-15.4l9.3,29.2c0.3,1,1.3,1.6,2.3,1.6h16c3.1,0,5.6-1.8,5.6-4c0-3.5-2.2-6.9-6-9.2c-2.3-1.3-4.9-2.1-7.8-2.5
	l-4-15l-2-33.3c7.7-8.1,12.6-17.3,9.3-34.5c-1.5-8,4-11.6,5.1-12.3c0.9-0.3,1.9-0.7,2.8-1c1.4-0.4,2.9-1.1,4.3-2
	c0.8-0.6,3.9-2.7,6.4-7.5C206.5,104.8,206.9,103.6,206.6,102.5z"/>
</svg>
