<?xml version="1.0" encoding="utf-8"?>
<!-- Generator: Adobe Illustrator 23.0.0, SVG Export Plug-In . SVG Version: 6.00 Build 0)  -->
<svg version="1.1" id="Layer_1" xmlns="http://www.w3.org/2000/svg" xmlns:xlink="http://www.w3.org/1999/xlink" x="0px" y="0px"
	 viewBox="0 0 300 413.3" enable-background="new 0 0 300 413.3" xml:space="preserve">
<g>
	<ellipse opacity="0.24" cx="149.2" cy="383.2" rx="67.1" ry="13"/>
	<g>
		<g>
			<path fill="#FF8400" d="M148.8,17.6C71.5,17.6,8.6,80.6,8.6,157.9c0,32.8,11.3,63,30.2,86.9l110.1,138.4l110.1-138.4
				c18.9-23.9,30.2-54.1,30.2-86.9C289.1,80.6,226.2,17.6,148.8,17.6z M148.8,270.4c-63.1,0-114.4-51.3-114.4-114.4
				S85.8,41.6,148.8,41.6S263.2,93,263.2,156S211.9,270.4,148.8,270.4z"/>
		</g>
	</g>
</g>
<g>
	<g id="Layer_3_49_">
		<path d="M165.4,116.4h-7.8c-1,0-1.8-0.8-1.8-1.8s0.8-1.8,1.8-1.8h7.8c1,0,1.8,0.8,1.8,1.8S166.4,116.4,165.4,116.4z"/>
		<g>
			<path d="M188.8,143.1c-25.1,0-45.5,18.1-45.5,43.2c0,12,4.8,23,13.4,30.9c8.4,7.7,19.8,11.9,32,11.9c12.3,0,23.6-4.2,32-11.9
				c8.7-7.9,13.4-18.9,13.4-30.9C234.3,161.2,213.9,143.1,188.8,143.1z M188.8,205.6c-10.7,0-19.4-8.7-19.4-19.4
				c0-10.7,8.7-19.4,19.4-19.4c10.7,0,19.4,8.7,19.4,19.4C208.2,196.9,199.5,205.6,188.8,205.6z"/>
			<path d="M95.3,166.6c-17.7,0-32.2,14.4-32.2,32.2c0,8.5,3.4,16.3,9.5,21.9c6,5.4,14,8.4,22.7,8.4c8.7,0,16.7-3,22.7-8.4
				c6.1-5.6,9.5-13.4,9.5-21.9C127.5,181,113,166.6,95.3,166.6z M95.3,212.4c-7.5,0-13.6-6.1-13.6-13.6c0-7.5,6.1-13.6,13.6-13.6
				c7.5,0,13.6,6.1,13.6,13.6C108.9,206.3,102.8,212.4,95.3,212.4z"/>
			<path d="M153.4,151.8c9.3-8.7,21.9-13.5,35.4-13.5c9.1,0,17.8,2.2,25.3,6.2c0,0,0.1,0,0.1,0c0.7,0.5,1.6,0.8,2.5,0.7
				c2-0.2,3.5-2,3.3-4c0-0.4-3.4-38.6-4.1-46.1c-1-11.9-9.6-11.9-12.8-11.9h-49.7c-4.4,0-12.7,0-15.2,12.6c-1.4,7.1-4.6,22-7,33.3
				c-12.8,0-24.7,0-34,0v-18.6c0-2.7-2.2-4.9-4.9-4.9s-4.9,2.2-4.9,4.9v18.6c-4.7,0-7.7,0-8.3,0c-14.2,0-18.6,30.6-10.8,44.3
				c6.8-7.2,16.3-11.7,27-11.7c18.6,0,34,13.8,36.6,31.7h7.2c-0.4-2.4-0.5-4.8-0.5-7.2C138.6,172.9,143.8,160.7,153.4,151.8z
				 M208.6,95.8c0.4,4.7,1.9,21.4,3,33.4c-5.8,0-17,0-30.6,0V90.6h22.2C206.7,90.6,208.2,90.8,208.6,95.8z M145.4,97.3
				c1.3-6.7,3.9-6.7,8-6.7h21.7v38.5c-11.4,0-24.1,0-36.3,0C141.3,117.2,144.4,102.3,145.4,97.3z"/>
		</g>
	</g>
</g>
</svg>
