<?xml version="1.0" encoding="utf-8"?>
<!-- Generator: Adobe Illustrator 23.0.0, SVG Export Plug-In . SVG Version: 6.00 Build 0)  -->
<svg version="1.1" id="Layer_1" xmlns="http://www.w3.org/2000/svg" xmlns:xlink="http://www.w3.org/1999/xlink" x="0px" y="0px"
	 viewBox="0 0 300 413.3" enable-background="new 0 0 300 413.3" xml:space="preserve">
<g>
	<ellipse opacity="0.24" cx="149.2" cy="384.3" rx="67.5" ry="13.1"/>
	<g>
		<g>
			<path fill="#FF8400" d="M148.8,16.4C71,16.4,7.7,79.8,7.7,157.6c0,33,11.4,63.4,30.4,87.4l110.8,139.3L259.6,245
				c19-24.1,30.4-54.4,30.4-87.4C290,79.8,226.7,16.4,148.8,16.4z M148.8,270.8c-63.5,0-115.1-51.6-115.1-115.1
				S85.4,40.6,148.8,40.6s115.1,51.6,115.1,115.1S212.3,270.8,148.8,270.8z"/>
		</g>
	</g>
</g>
<g>
	<g id="Layer_3_49_">
		<path d="M165.5,115.8h-7.8c-1,0-1.8-0.8-1.8-1.8s0.8-1.8,1.8-1.8h7.8c1,0,1.8,0.8,1.8,1.8S166.5,115.8,165.5,115.8z"/>
		<g>
			<path d="M189.1,142.7c-25.2,0-45.7,18.2-45.7,43.4c0,12.1,4.8,23.1,13.5,31.1c8.5,7.7,19.9,12,32.2,12c12.3,0,23.8-4.3,32.2-12
				c8.7-8,13.5-19,13.5-31.1C234.8,160.9,214.3,142.7,189.1,142.7z M189.1,205.6c-10.7,0-19.5-8.7-19.5-19.5
				c0-10.7,8.7-19.5,19.5-19.5c10.7,0,19.5,8.7,19.5,19.5C208.6,196.9,199.8,205.6,189.1,205.6z"/>
			<path d="M94.9,166.3c-17.9,0-32.4,14.5-32.4,32.4c0,8.6,3.4,16.4,9.6,22c6,5.5,14.1,8.5,22.8,8.5c8.7,0,16.8-3,22.8-8.5
				c6.2-5.6,9.6-13.5,9.6-22C127.3,180.9,112.8,166.3,94.9,166.3z M94.9,212.5c-7.6,0-13.7-6.2-13.7-13.7c0-7.6,6.2-13.7,13.7-13.7
				s13.7,6.2,13.7,13.7C108.7,206.3,102.5,212.5,94.9,212.5z"/>
			<path d="M153.4,151.4c9.4-8.7,22-13.6,35.6-13.6c9.1,0,17.9,2.2,25.5,6.3c0,0,0.1,0,0.1,0c0.7,0.5,1.6,0.8,2.5,0.7
				c2-0.2,3.5-2,3.4-4c0-0.4-3.5-38.9-4.1-46.4c-1-11.9-9.7-11.9-12.9-11.9h-50c-4.5,0-12.7,0-15.3,12.6c-1.4,7.1-4.6,22.1-7,33.6
				c-12.8,0-24.9,0-34.2,0V110c0-2.7-2.2-4.9-4.9-4.9S87,107.2,87,110v18.7c-4.7,0-7.8,0-8.3,0c-14.3,0-18.8,30.8-10.9,44.6
				c6.8-7.2,16.4-11.8,27.1-11.8c18.7,0,34.2,13.9,36.8,31.9h7.3c-0.4-2.4-0.5-4.8-0.5-7.3C138.5,172.7,143.8,160.4,153.4,151.4z
				 M209,95.1c0.4,4.7,1.9,21.6,3,33.6c-5.9,0-17.2,0-30.8,0V89.9h22.3C207.1,89.9,208.6,90.1,209,95.1z M145.4,96.6
				c1.4-6.7,3.9-6.7,8-6.7h21.8v38.8c-11.5,0-24.2,0-36.5,0C141.3,116.6,144.4,101.7,145.4,96.6z"/>
		</g>
	</g>
</g>
</svg>
