<?xml version="1.0" encoding="utf-8"?>
<!-- Generator: Adobe Illustrator 23.0.0, SVG Export Plug-In . SVG Version: 6.00 Build 0)  -->
<svg version="1.1" id="Layer_1" xmlns="http://www.w3.org/2000/svg" xmlns:xlink="http://www.w3.org/1999/xlink" x="0px" y="0px"
	 viewBox="0 0 300 413.3" enable-background="new 0 0 300 413.3" xml:space="preserve">
<g>
	<ellipse opacity="0.24" cx="149.2" cy="385.5" rx="68" ry="13.2"/>
	<g>
		<g>
			<path fill="#FF8400" d="M148.8,15.1C70.5,15.1,6.7,78.9,6.7,157.3c0,33.2,11.5,63.8,30.6,88l111.5,140.2l111.5-140.2
				c19.2-24.2,30.6-54.8,30.6-88C291,78.9,227.2,15.1,148.8,15.1z M148.8,271.3c-63.9,0-115.9-52-115.9-115.9s52-115.9,115.9-115.9
				s115.9,52,115.9,115.9S212.8,271.3,148.8,271.3z"/>
		</g>
	</g>
</g>
<g>
	<g>
		<path d="M79.3,157.4c-11.8,0-21.4,9.6-21.4,21.4c0,0.9,0.1,1.8,0.2,2.7c1.3,10.5,10.3,18.7,21.2,18.7c11.2,0,20.4-8.6,21.3-19.6
			c0-0.6,0.1-1.2,0.1-1.8C100.7,167,91.1,157.4,79.3,157.4z M71.2,172.7l3.3,3.3c-0.3,0.4-0.5,0.9-0.6,1.4h-4.6
			C69.5,175.7,70.2,174.1,71.2,172.7z M69.3,180.2h4.7c0.1,0.5,0.3,1,0.6,1.4l-3.3,3.3C70.2,183.6,69.5,182,69.3,180.2z M77.9,188.8
			c-1.7-0.2-3.3-0.9-4.7-1.9l3.3-3.3c0.4,0.3,0.9,0.4,1.4,0.6L77.9,188.8L77.9,188.8z M77.9,173.5c-0.5,0.1-1,0.3-1.4,0.6l-3.3-3.3
			c1.3-1,2.9-1.7,4.7-1.9V173.5z M80.7,168.8c1.8,0.2,3.4,0.9,4.7,1.9l-3.3,3.3c-0.4-0.3-0.9-0.5-1.4-0.6
			C80.7,173.5,80.7,168.8,80.7,168.8z M80.7,188.8v-4.6c0.5-0.1,1-0.3,1.4-0.6l3.3,3.3C84,187.9,82.4,188.5,80.7,188.8z M87.3,184.9
			l-3.3-3.3c0.3-0.4,0.5-0.9,0.6-1.4h4.6C89,182,88.3,183.6,87.3,184.9z M84.6,177.4c-0.1-0.5-0.3-1-0.6-1.4l3.3-3.3
			c1,1.3,1.7,2.9,1.9,4.7H84.6z"/>
		<path d="M211.4,157.4c-11.8,0-21.4,9.6-21.4,21.4c0,0.9,0.1,1.8,0.2,2.7c1.3,10.5,10.3,18.7,21.2,18.7c11.2,0,20.4-8.6,21.3-19.6
			c0-0.6,0.1-1.2,0.1-1.8C232.8,167,223.2,157.4,211.4,157.4z M203.4,172.7l3.3,3.3c-0.3,0.4-0.5,0.9-0.6,1.4h-4.6
			C201.7,175.7,202.4,174.1,203.4,172.7z M201.4,180.2h4.7c0.1,0.5,0.3,1,0.6,1.4l-3.3,3.3C202.4,183.6,201.7,182,201.4,180.2z
			 M210,188.8c-1.7-0.2-3.3-0.9-4.7-1.9l3.3-3.3c0.4,0.3,0.9,0.4,1.4,0.6L210,188.8L210,188.8z M210,173.5c-0.5,0.1-1,0.3-1.4,0.6
			l-3.3-3.3c1.3-1,2.9-1.7,4.7-1.9C210,168.8,210,173.5,210,173.5z M212.8,168.8c1.8,0.2,3.3,0.9,4.7,1.9l-3.3,3.3
			c-0.4-0.3-0.9-0.5-1.4-0.6C212.8,173.5,212.8,168.8,212.8,168.8z M212.8,188.8v-4.6c0.5-0.1,1-0.3,1.4-0.6l3.3,3.3
			C216.1,187.9,214.6,188.5,212.8,188.8z M219.5,184.9l-3.3-3.3c0.3-0.4,0.5-0.9,0.6-1.4h4.6C221.1,182,220.5,183.6,219.5,184.9z
			 M216.8,177.4c-0.1-0.5-0.3-1-0.6-1.4l3.3-3.3c1,1.3,1.7,2.9,1.9,4.7H216.8z"/>
		<path d="M202.6,105.6l-57.4,0.7c-1.7,0-3.1,1.4-3.1,3.2c0,1.7,1.4,3.1,3.1,3.1c0,0,0.1,0,0.1,0l57.4-0.7c1.7,0,3.1-1.4,3.1-3.2
			C205.7,106.9,204.2,105.5,202.6,105.6z"/>
		<path d="M179.8,178.2H112c-1.7,0-3.1,1.4-3.1,3.1c0,1.7,1.4,3.1,3.1,3.1h67.8c1.7,0,3.1-1.4,3.1-3.1
			C183,179.6,181.6,178.2,179.8,178.2z"/>
		<path d="M248.7,160.4c-0.7-0.9-1.8-1.4-3-1.4h-3.5l-3.6-39.4c-0.2-2.2-2-3.8-4.2-3.8l-101.4,1.5c-1.6,0-3.1,0.8-4,2l-13.4,17.3
			l-44,2.7c-2.4,0.1-4.6,1.4-5.9,3.4l-2.5,3.6c0,0-4.2,1.5-5.4,2.4c-1,0.8-3,4.2-3,4.2c-0.4,0.5-0.4,1.2-0.1,1.8
			c0.3,0.6,0.9,0.9,1.5,0.9v3.8h-3.7c-2.1,0-3.8,1.7-3.8,3.8v6.9c0,2.6,2.1,4.7,4.7,4.7h2.5l6.5-17.8c0.6-1.6,2.1-2.7,3.9-2.7h22.5
			c1.3,0,2.5,0.6,3.3,1.6l15.2,19.9h79.2l11.1-18.7c0.7-1.2,2.1-2,3.5-2h20.7c1.5,0,2.8,0.8,3.5,2l10.9,18.7h3.9
			c4.1,0,7.6-2.9,8.4-6.9l1.1-5.4C249.7,162.5,249.4,161.3,248.7,160.4z M152.2,140.6h-23.4v-7.2h-4.7l7.1-9.3
			c0.3-0.4,0.8-0.6,1.3-0.7l23.7-0.4v10.4L152.2,140.6z M190.8,140.6h-25.2v-17.7l30.4-0.5v12.9L190.8,140.6z M203.8,140.6v-18.2
			l26.2-0.4c0.4,0,0.8,0.3,0.8,0.8l1.2,17.8C232.1,140.6,203.8,140.6,203.8,140.6z"/>
	</g>
</g>
</svg>
