<?xml version="1.0" encoding="utf-8"?>
<!-- Generator: Adobe Illustrator 23.0.0, SVG Export Plug-In . SVG Version: 6.00 Build 0)  -->
<svg version="1.1" id="Layer_1" xmlns="http://www.w3.org/2000/svg" xmlns:xlink="http://www.w3.org/1999/xlink" x="0px" y="0px"
	 viewBox="0 0 300 413.3" enable-background="new 0 0 300 413.3" xml:space="preserve">
<g>
	<ellipse opacity="0.24" cx="149.2" cy="379.2" rx="65.6" ry="12.7"/>
	<g>
		<g>
			<path fill="#FF8400" d="M148.8,21.8C73.2,21.8,11.7,83.4,11.7,159c0,32,11,61.6,29.5,84.9l107.6,135.3l107.6-135.3
				C275,220.6,286,191,286,159C286,83.4,224.5,21.8,148.8,21.8z M148.8,269C87.2,269,37,218.8,37,157.2S87.2,45.3,148.8,45.3
				s111.8,50.2,111.8,111.8S210.5,269,148.8,269z"/>
		</g>
	</g>
</g>
<g>
	<g>
		<path d="M152.2,155.6c26.4,0,35.9-26.4,38.3-48.1c3.1-26.7-9.6-46.8-38.3-46.8c-28.8,0-41.4,20.1-38.3,46.8
			C116.4,129.2,125.8,155.6,152.2,155.6z"/>
		<path d="M223.5,218.5c-0.3-8.4-1.3-16.9-2.7-25.2c-1.8-10-4-24.7-12.8-31.3c-5.1-3.8-11.6-5-17.4-7.3c-2.8-1.1-5.4-2.2-7.7-3.5
			c-8,8.8-18.5,13.4-30.6,13.4c-12.2,0-22.6-4.6-30.6-13.4c-2.4,1.3-4.9,2.4-7.7,3.5c-5.8,2.3-12.4,3.5-17.4,7.3
			c-8.8,6.5-11,21.3-12.8,31.3c-1.5,8.3-2.5,16.7-2.7,25.2c-0.2,6.5,3,7.4,8.4,9.4c6.8,2.5,13.9,4.3,21,5.8
			c13.7,2.9,27.8,5.1,41.9,5.2c14.1-0.1,28.2-2.3,41.9-5.2c7.1-1.5,14.1-3.3,21-5.8C220.5,225.9,223.8,225,223.5,218.5z"/>
	</g>
</g>
</svg>
