<?xml version="1.0" encoding="utf-8"?>
<!-- Generator: Adobe Illustrator 23.0.0, SVG Export Plug-In . SVG Version: 6.00 Build 0)  -->
<svg version="1.1" id="Layer_1" xmlns="http://www.w3.org/2000/svg" xmlns:xlink="http://www.w3.org/1999/xlink" x="0px" y="0px"
	 viewBox="0 0 300 413.3" enable-background="new 0 0 300 413.3" xml:space="preserve">
<g>
	<ellipse opacity="0.24" cx="149.2" cy="384.1" rx="67.5" ry="13.1"/>
	<g>
		<g>
			<path fill="#FF8400" d="M148.8,16.6c-77.8,0-141,63.3-141,141c0,32.9,11.4,63.3,30.4,87.3l110.7,139.1L259.5,245
				c19-24,30.4-54.4,30.4-87.3C289.9,79.9,226.6,16.6,148.8,16.6z M148.8,270.8c-63.4,0-115-51.6-115-115s51.6-115,115-115
				s115,51.6,115,115S212.3,270.8,148.8,270.8z"/>
		</g>
	</g>
</g>
<g>
	<path d="M233.8,154c0-3.3-0.8-6.5-2.1-9.4c-0.1-0.7-0.3-1.5-0.5-2.2L216.5,106l-0.1-0.3c-5.1-15.3-12.5-29.5-31-29.5h-71
		c-19,0-25.7,14.5-31,29.4l-15.4,36.5c-2.2,3.6-3.5,7.6-3.5,12v11.3c0,1.8,0.2,3.5,0.6,5.1c-0.4,1-0.6,2.1-0.6,3.2v33.7
		c0,4.9,4,9,9,9h18.6c4.9,0,9-4,9-9v-16.9h97.3v16.9c0,4.9,4,9,9,9h17.5c4.9,0,9-4,9-9v-33.7c0-1.1-0.2-2.2-0.6-3.2
		c0.4-1.7,0.6-3.4,0.6-5.1L233.8,154L233.8,154L233.8,154z M94.4,109.2c5.9-16.5,10.6-21.6,20.1-21.6h71c9.5,0,14.7,5.6,20.1,21.5
		l10.7,21.7c-3.5-1.3-7.4-2-11.4-2H93.6c-3.6,0-7.1,0.6-10.3,1.6L94.4,109.2z M103.6,169.7H84c-3.5,0-6.4-2.9-6.4-6.4
		c0-3.5,2.9-6.4,6.4-6.4h19.6c3.5,0,6.4,2.9,6.4,6.4C110,166.8,107.1,169.7,103.6,169.7z M172.8,168.4h-45.6c-2.2,0-4-1.8-4-4
		c0-2.2,1.8-4.1,4-4.1h45.6c2.2,0,4,1.8,4,4.1C176.9,166.6,175.1,168.4,172.8,168.4z M214,169.7h-19.6c-3.5,0-6.4-2.9-6.4-6.4
		c0-3.5,2.9-6.4,6.4-6.4H214c3.5,0,6.4,2.9,6.4,6.4C220.3,166.8,217.5,169.7,214,169.7z"/>
</g>
</svg>
