<?xml version="1.0" encoding="utf-8"?>
<!-- Generator: Adobe Illustrator 23.0.0, SVG Export Plug-In . SVG Version: 6.00 Build 0)  -->
<svg version="1.1" id="Layer_1" xmlns="http://www.w3.org/2000/svg" xmlns:xlink="http://www.w3.org/1999/xlink" x="0px" y="0px"
	 viewBox="0 0 300 413.3" enable-background="new 0 0 300 413.3" xml:space="preserve">
<g>
	<ellipse opacity="0.24" cx="149.2" cy="379.2" rx="65.6" ry="12.7"/>
	<g>
		<g>
			<path fill="#FF8400" d="M148.8,21.8C73.2,21.8,11.7,83.4,11.7,159c0,32,11,61.6,29.5,84.9l107.6,135.3l107.6-135.3
				C275,220.6,286,191,286,159C286,83.4,224.5,21.8,148.8,21.8z M148.8,269C87.2,269,37,218.8,37,157.2S87.2,45.3,148.8,45.3
				s111.8,50.2,111.8,111.8S210.5,269,148.8,269z"/>
		</g>
	</g>
</g>
<g>
	<g id="Layer_1_38_">
		<g>
			<path d="M202.6,148.4c-20.5,0-37.1,16.7-37.1,37.1c0,20.5,16.7,37.1,37.1,37.1c20.5,0,37.1-16.7,37.1-37.1
				C239.7,165,223.1,148.4,202.6,148.4z M202.6,211.5c-14.3,0-26-11.7-26-26c0-14.3,11.7-26,26-26c14.3,0,26,11.7,26,26
				C228.6,199.8,217,211.5,202.6,211.5z"/>
			<path d="M96,148.4c-20.5,0-37.1,16.7-37.1,37.1c0,20.5,16.7,37.1,37.1,37.1c20.5,0,37.1-16.7,37.1-37.1
				C133.2,165,116.5,148.4,96,148.4z M96,211.5c-14.3,0-26-11.7-26-26c0-14.3,11.7-26,26-26c14.3,0,26,11.7,26,26
				C122.1,199.8,110.4,211.5,96,211.5z"/>
			<path d="M153,146.1l-10.3-8l20.4-10.4l17.2,14.3c1.2,1,2.6,1.6,4.3,1.7l16.4,0.9c3.9,0.2,7.4-2.5,8.1-6.5c0.7-4.2-2.1-7-6.4-7.7
				l-16.8-2.5c0,0-12.2-16.9-15-19.8c-8.3-8.6-13.2-13.5-22.7-8.8l-29,14.3c-8.3,4.2-13.8,15.3-9.1,24.8c2.3,4.7,5.9,7,11.2,10.5
				l16.8,10.2l2,32.1c0.3,4.4,4,8,8.5,7.9c4.7,0,8.4-3.8,8.4-8.5l-0.2-37.3C156.7,150.6,155.4,147.9,153,146.1z"/>
			<path d="M178,112.7c1.8,1.2,3.9,2.1,6.1,2.5l0,0c5.4,1,11.1-0.7,15-4.6c3.9-3.9,5.7-9.8,4.5-15.2c-1.1-5.3-4.9-9.9-9.9-12
				c-5.1-2.1-11.1-1.5-15.7,1.6c-4.6,3.1-7.4,8.4-7.4,14C170.7,104.4,173.5,109.6,178,112.7z"/>
		</g>
	</g>
</g>
</svg>
