<?xml version="1.0" encoding="utf-8"?>
<!-- Generator: Adobe Illustrator 23.0.0, SVG Export Plug-In . SVG Version: 6.00 Build 0)  -->
<svg version="1.1" id="Layer_1" xmlns="http://www.w3.org/2000/svg" xmlns:xlink="http://www.w3.org/1999/xlink" x="0px" y="0px"
	 viewBox="0 0 300 413.3" enable-background="new 0 0 300 413.3" xml:space="preserve">
<g>
	<ellipse opacity="0.24" cx="149.2" cy="384.1" rx="67.5" ry="13.1"/>
	<g>
		<g>
			<path fill="#FF8400" d="M148.8,16.6c-77.8,0-141,63.3-141,141c0,32.9,11.4,63.3,30.4,87.3l110.7,139.1L259.5,245
				c19-24,30.4-54.4,30.4-87.3C289.9,79.9,226.6,16.6,148.8,16.6z M148.8,270.8c-63.4,0-115-51.6-115-115s51.6-115,115-115
				s115,51.6,115,115S212.3,270.8,148.8,270.8z"/>
		</g>
	</g>
</g>
<path d="M181.3,155.7c-8.3-13-22.5-20.8-38-20.8s-29.6,7.8-38,20.8l-20.1,31.3c-3.3,5.2-4.9,11.2-4.4,17.4
	c0.4,6.2,2.8,11.9,6.8,16.6c4,4.7,9.3,7.9,15.3,9.3c6,1.4,12.2,0.8,17.9-1.7l0.4-0.2c14.2-6.1,30.5-6.1,44.7,0.2
	c3.7,1.6,7.5,2.4,11.5,2.4c2.1,0,4.3-0.2,6.4-0.7c6-1.4,11.3-4.6,15.3-9.3c4-4.7,6.4-10.4,6.8-16.6s-1.1-12.2-4.4-17.4L181.3,155.7z
	"/>
<path d="M90.7,155.7c6-2.3,10.5-7.1,12.8-13.6c2.2-6.1,2-13.1-0.5-19.5c-2.5-6.4-7-11.7-12.7-14.8c-6-3.3-12.6-3.8-18.6-1.5
	c-12,4.6-17.5,19.4-12.3,33.1c4.2,10.8,13.9,17.7,23.8,17.7C85.7,157.1,88.2,156.6,90.7,155.7z"/>
<path d="M129.6,131.1c15,0,27.2-13.9,27.2-31c0-17.1-12.2-31-27.2-31c-15,0-27.2,13.9-27.2,31C102.4,117.2,114.6,131.1,129.6,131.1z
	"/>
<path d="M176.6,138.8L176.6,138.8c2.3,0.8,4.7,1.1,7,1.1c10.9,0,21.6-8,25.7-20.2c2.3-7,2.2-14.5-0.4-21
	c-2.7-6.8-7.8-11.7-14.3-13.9c-6.5-2.2-13.5-1.3-19.8,2.5c-6,3.6-10.6,9.5-12.9,16.5C156.9,118.8,163.6,134.4,176.6,138.8z"/>
<path d="M233.9,135.1L233.9,135.1c-10.4-7.6-25.8-4.3-34.5,7.4c-8.7,11.7-7.3,27.5,3,35.1c3.8,2.8,8.2,4.1,12.8,4.1
	c7.9,0,16.2-4.1,21.7-11.5C245.6,158.6,244.3,142.8,233.9,135.1z"/>
</svg>
