<?xml version="1.0" encoding="utf-8"?>
<!-- Generator: Adobe Illustrator 23.0.0, SVG Export Plug-In . SVG Version: 6.00 Build 0)  -->
<svg version="1.1" id="Layer_1" xmlns="http://www.w3.org/2000/svg" xmlns:xlink="http://www.w3.org/1999/xlink" x="0px" y="0px"
	 viewBox="0 0 300 413.3" enable-background="new 0 0 300 413.3" xml:space="preserve">
<g>
	<ellipse opacity="0.24" cx="149.2" cy="381.3" rx="66.4" ry="12.9"/>
	<g>
		<g>
			<path fill="#FF8400" d="M148.8,19.6C72.3,19.6,10,81.9,10,158.4c0,32.4,11.2,62.3,29.9,85.9l108.9,136.9l108.9-136.9
				c18.7-23.7,29.9-53.5,29.9-85.9C287.6,81.9,225.4,19.6,148.8,19.6z M148.8,269.8c-62.4,0-113.2-50.8-113.2-113.2
				S86.4,43.4,148.8,43.4S262,94.2,262,156.6S211.3,269.8,148.8,269.8z"/>
		</g>
	</g>
</g>
<g>
	<g>
		<path fill="#030104" d="M115.7,119c0.6,2.8,1.5,4.6,2.6,5.7c2.6,17.8,18.6,33,31.4,32.4c16.4-0.8,28-18.4,30.6-32.4
			c1.1-1.1,2.1-3.5,2.7-6.3c0.7-3.2,1.4-8-0.5-10.6c-0.1-0.1-0.8-0.8-1-0.9c1.8-6.6,5.9-18.5-4.2-29.1c-5.5-5.8-13-8.7-19.9-11
			c-20.2-6.8-34.5,2.7-41.1,18.5c-0.5,1.1-3.5,8.2,0.2,21.6c-0.4,0.2-0.7,0.5-1,0.9C113.7,110.4,115,115.8,115.7,119z"/>
		<path fill="#030104" d="M220.2,217.2c-0.6-12.3-1.3-31.7-12-47.7c0,0-3.1-4.2-10.3-6.9c0,0-15.8-4.8-23-10l-3.3,2.3l0.4,21.5
			l-19.9,53.1c-0.4,1.2-1.5,1.9-2.8,1.9c-1.2,0-2.3-0.8-2.8-1.9l-19.9-53.1c0,0,0.4-21.5,0.4-21.5c0,0.2-3.3-2.3-3.3-2.3
			c-7.2,5.2-23,10-23,10c-7.3,2.8-10.3,6.9-10.3,6.9c-10.7,15.9-11.4,35.4-12,47.7c-0.4,8.5,1.4,11.7,3.6,12.6
			c27.7,11.1,106.8,11.1,134.6,0C218.8,228.8,220.6,225.6,220.2,217.2z"/>
		<path fill="#030104" d="M150,164l-0.9,0c-2.9,0-5.8-0.6-8.7-1.6l7.9,12.1l-7.1,6.8l7.3,44.2c0.1,0.4,0.4,0.7,0.8,0.7
			c0.4,0,0.7-0.3,0.8-0.7l7.3-44.2l-7.1-6.8l7.8-11.9C155.5,163.4,152.8,163.9,150,164z"/>
	</g>
</g>
</svg>
