<?xml version="1.0" encoding="utf-8"?>
<!-- Generator: Adobe Illustrator 23.0.0, SVG Export Plug-In . SVG Version: 6.00 Build 0)  -->
<svg version="1.1" id="Layer_1" xmlns="http://www.w3.org/2000/svg" xmlns:xlink="http://www.w3.org/1999/xlink" x="0px" y="0px"
	 viewBox="0 0 300 413.3" enable-background="new 0 0 300 413.3" xml:space="preserve">
<g>
	<ellipse opacity="0.24" cx="149.2" cy="384.1" rx="67.5" ry="13.1"/>
	<g>
		<g>
			<path fill="#FF8400" d="M148.8,16.6c-77.8,0-141,63.3-141,141c0,32.9,11.4,63.3,30.4,87.3l110.7,139.1L259.5,245
				c19-24,30.4-54.4,30.4-87.3C289.9,79.9,226.6,16.6,148.8,16.6z M148.8,270.8c-63.4,0-115-51.6-115-115s51.6-115,115-115
				s115,51.6,115,115S212.3,270.8,148.8,270.8z"/>
		</g>
	</g>
</g>
<g>
	<g id="Layer_2_28_">
		<g>
			<path d="M131.5,126c-4.8,0-8.6,3.9-8.6,8.6c0,4.8,3.9,8.6,8.6,8.6c4.8,0,8.6-3.9,8.6-8.6C140.2,129.8,136.3,126,131.5,126z
				 M133.3,140.1c-2.4,0-4.4-2-4.4-4.4c0-2.4,2-4.4,4.4-4.4c2.4,0,4.4,2,4.4,4.4C137.7,138.1,135.7,140.1,133.3,140.1z"/>
			<path d="M167.3,126c-4.8,0-8.6,3.9-8.6,8.6c0,4.8,3.9,8.6,8.6,8.6c4.8,0,8.7-3.9,8.7-8.6C175.9,129.8,172.1,126,167.3,126z
				 M165.5,140.1c-2.4,0-4.4-2-4.4-4.4c0-2.4,2-4.4,4.4-4.4c2.4,0,4.4,2,4.4,4.4C170,138.1,168,140.1,165.5,140.1z"/>
			<path d="M183.7,188c-2.7,0-10.7,0-12.4,0c0,0-0.1,0-0.1,0c0,0-0.1,0-0.1,0c-0.1,0-0.1,0-0.1,0l0,0c-1.3,0.1-2.4,0.8-3.1,1.8l0,0
				c0,0,0,0.1-0.1,0.2c0,0,0,0,0,0c-1.5,2.5-13.6,22.9-18.3,23.1c-4.7-0.1-16.8-20.6-18.3-23.1c0,0,0,0,0,0
				c-0.1-0.1-0.1-0.2-0.1-0.2l0,0c-0.7-1-1.8-1.7-3.1-1.8l0,0c0,0-0.1,0-0.1,0c0,0-0.1,0-0.1,0c0,0-0.1,0-0.1,0c-1.8,0-9.8,0-12.4,0
				c-12,0-28.1,11-28.1,24.9s0,22.3,0,22.3h62.4h0.1h0.1h62.4c0,0,0-8.4,0-22.3C211.8,199,195.7,188,183.7,188z"/>
			<path d="M239.8,163C239.8,163,239.8,163,239.8,163c-4.3-18.7,5.4-41.9-9.7-60.3c-13.6-16.5-25,0.8-28.4-0.2
				c-3.6-8.3-9-15.9-15.8-22c-10.4-9.4-23.4-14.6-36.5-14.6c0,0,0,0,0,0c0,0,0,0,0,0c-13.2,0-26.1,5.2-36.5,14.6
				c-6.8,6.1-12.2,13.7-15.8,22c-3.4,1-14.9-16.3-28.4,0.2c-15.1,18.4-5.4,41.5-9.6,60.2c0,0,0,0.1,0,0.1c-0.1,0.3-0.1,0.6-0.1,1
				c0,2.2,1.7,4,3.9,4.2c0,0,0,0,0,0c0,0,0,0,0,0c0.1,0,0.2,0,0.3,0c0,0,0,0,0,0c22.8,1.3,32.5-9.5,35.1-17.3c0.1,0,0.2,0,0.3,0
				c4.8,8.5,11.9,16.3,20.1,22c9.6,6.7,20.2,10.3,30.7,10.5v0c0,0,0,0,0.1,0c0,0,0,0,0.1,0v0c10.5-0.2,21.1-3.8,30.7-10.5
				c8.2-5.7,15.3-13.5,20.1-22c0.1,0,0.2,0,0.3,0c2.6,7.8,12.3,18.6,35.1,17.3c0,0,0,0,0,0c0.1,0,0.2,0,0.3,0c0,0,0,0,0,0
				c0,0,0,0,0,0c2.2-0.2,3.9-2,3.9-4.2C239.9,163.7,239.9,163.4,239.8,163z M199,143.2c-0.1,0-0.3,0-0.5,0l-2.8-0.2l-1.2,2.3
				c-7.4,14.4-24.7,30-45.1,30.4c-20.5-0.4-37.7-15.9-45.1-30.4l-1.2-2.3l-2.8,0.2c-0.2,0-0.4,0-0.5,0c-5.9,0-8.9-3.9-8.9-11.7
				c0-2.6,0.5-11.3,7.3-13.1c0,0,26.5,0.6,46.9-5.6c4.3-1.3,5.8-0.8,9.4,0.2c20.4,5.7,46.1,5.3,46.1,5.3c6.8,1.7,7.3,10.5,7.3,13.1
				C207.9,139.3,204.9,143.2,199,143.2z"/>
		</g>
	</g>
</g>
</svg>
